<svg xmlns="http://www.w3.org/2000/svg" viewBox="0 0 512 512">
  <defs>
    <linearGradient id="bg" x1="0" y1="0" x2="1" y2="1">
      <stop offset="0%" stop-color="#f59e0b"/>
      <stop offset="100%" stop-color="#06b6d4"/>
    </linearGradient>
  </defs>
  <rect width="512" height="512" rx="112" fill="#0b1120"/>
  <rect x="24" y="24" width="464" height="464" rx="96" fill="url(#bg)"/>
  <g transform="translate(256,270)">
    <path d="M8,-160 L28,-60 L160,-10 C170,-7 170,7 160,10 L28,40 L8,130 L48,155 C54,159 52,168 45,168 L-10,150 L-30,170 C-35,175 -45,175 -50,170 L-70,150 L-125,168 C-132,168 -134,159 -128,155 L-88,130 L-108,40 L-240,10 C-250,7 -250,-7 -240,-10 L-108,-60 L-88,-160 C-85,-178 -72,-188 -50,-188 C-28,-188 -15,-178 8,-160 Z" fill="white"/>
  </g>
</svg>
